<svg xmlns="http://www.w3.org/2000/svg" viewBox="0 0 897.51 260"><defs><style>.cls-1{fill:#36b777;}.cls-2{fill:#c1902d;}</style></defs><g id="Layer_2"><g id="Layer_1-2"><path class="cls-1" d="M74.32,147.73l37-96.52h35.72L67,256.06H33.88l23.37-64.21L0,51.21H37Z"/><path class="cls-1" d="M190.8,132.1q2,15.24,10.43,23.37T224,163.62a33.74,33.74,0,0,0,17.92-4.6,29.15,29.15,0,0,0,11.49-13.26L289.15,156a64.21,64.21,0,0,1-14.84,22,65.68,65.68,0,0,1-22.06,14.12A71.38,71.38,0,0,1,226.12,197q-21.54,0-38.28-9.32a66.66,66.66,0,0,1-26.13-26Q152.32,145,152.32,124q0-22.84,9.13-40.25a65.84,65.84,0,0,1,25.41-26.92q16.27-9.51,37.16-9.52,20.49,0,35.58,9.06a59.37,59.37,0,0,1,23.18,25.74q8.07,16.68,8.08,39.13,0,3.55-.53,10.9Zm.92-26.52h62.5q-1.84-14.31-8.73-20.82t-19.9-6.5Q197.36,78.26,191.72,105.58Z"/><path class="cls-1" d="M358.22,193H322.5V0h35.72Z"/><path class="cls-1" d="M500.62,56.86a63.66,63.66,0,0,1,23.64,26.66q8.34,17.07,8.34,38.6,0,21.15-8.21,38.21a65,65,0,0,1-23.11,26.86Q486.37,197,467.2,197q-19.43,0-33.87-9.06v68.15h-36V51.21h31.51v7.88Q444,47.27,465.37,47.27,485.32,47.27,500.62,56.86Zm-14.24,96.32q8.4-12,8.4-31.06A59.69,59.69,0,0,0,491,100.19a34.17,34.17,0,0,0-11.55-15.43q-7.76-5.7-19.31-5.71-16.14,0-23.7,11.42t-7.55,31.65q0,43.08,32.57,43.07Q478,165.19,486.38,153.18Z"/><path class="cls-2" d="M583.42,24.29H564.11V2.63h19.31Zm0,168.74H564.11V51.21h19.31Z"/><path class="cls-2" d="M720.63,57.38A54.63,54.63,0,0,1,739,82.4,93.6,93.6,0,0,1,744.66,115v78H725.23V120.68q0-25.08-10-39.86T684.13,66.05q-20.22,0-31.12,13.53t-10.9,37.81V193H622.67V51.21h17.47v19.7a51.07,51.07,0,0,1,20.09-17.33,62.48,62.48,0,0,1,27.57-5.91Q707.9,47.67,720.63,57.38Z"/><path class="cls-2" d="M880.31,51.21h17.2V191.06a141.15,141.15,0,0,1-1.58,22.59Q888.45,260,835.14,260a69,69,0,0,1-32.37-7.75,56.15,56.15,0,0,1-23.57-23.5L796.66,219a36.67,36.67,0,0,0,16,16.68,47.54,47.54,0,0,0,22.52,5.51q22.58,0,32.82-12.47t10.12-37.95V176.22a53.9,53.9,0,0,1-19,15.37A57.48,57.48,0,0,1,833.82,197q-19.43,0-33.68-9.72t-21.73-26.79q-7.49-17.06-7.49-38.47t7.49-38.28Q785.9,66.72,800,57t33-9.72q15.36,0,27.31,6.11a54.79,54.79,0,0,1,20,17.4ZM860.48,171.69a43.45,43.45,0,0,0,14.9-20.09q4.93-12.79,4.93-29.61t-4.93-29.74q-4.92-12.81-14.83-19.9t-24.36-7.09q-14.72,0-24.82,7.36a43.59,43.59,0,0,0-15,20.15q-4.92,12.81-4.92,29.22a80.14,80.14,0,0,0,5.05,29.35,44.76,44.76,0,0,0,15,20.29q10,7.35,24.29,7.35Q850.51,179,860.48,171.69Z"/></g></g></svg>